# xmcd
#
# Track frame offsets:
#	150
#	10624
#	28659
#	41684
#	59615
#	81204
#	94203
#	111357
#	128418
#	138939
#	157894
#	171933
#
# Disc length: 2593 seconds
#
# Revision: 1
# Processed by: cddbd v1.5.1PL0 Copyright (c) Steve Scherf et al.
# Submitted via: audiograbber 1.83.01
#
DISCID=940a1f0c
DTITLE=The Lilly Brothers - Country Songs
DYEAR=1900
DGENRE=Country
TTITLE0=Dig A Hole in the Meadow
TTITLE1=Goodbye Maggie
TTITLE2=I'm Troubled, I'm Troubled
TTITLE3=Long Black Veil
TTITLE4=Butcher Boy
TTITLE5=Roll in My Sweet Baby's Arms
TTITLE6=Weeping Willow Tree
TTITLE7=There'll Come a Time
TTITLE8=Open Up Them Pearly Gates
TTITLE9=Rosewood Casket
TTITLE10=Jack and Mae
TTITLE11=Knoxville Girl
EXTD=
EXTT0=
EXTT1=
EXTT2=
EXTT3=
EXTT4=
EXTT5=
EXTT6=
EXTT7=
EXTT8=
EXTT9=
EXTT10=
EXTT11=
PLAYORDER=
